<svg width="199.30695474585312" height="31.435590983309417" viewBox="0 0 199.30695474585312 31.435590983309417" class="css-1j8o68f"><defs id="SvgjsDefs2902"></defs><g id="SvgjsG2903" featurekey="Df7oLJ-0" transform="matrix(213.83598359596104,0,0,213.83598359596104,0.004553371974209373,5.0021970258755895)" fill="#ffaa64"><defs xmlns="http://www.w3.org/2000/svg"></defs><g xmlns="http://www.w3.org/2000/svg"><path class="fil0" d="M0.00348819 0.0455c0.063185,-0.0636929 0.103358,-0.0472795 0.146791,-0.0295354 0.0987559,0.046874 0.161091,-0.00640551 0.14524,0.00562992 -0.0688543,0.0476299 -0.11235,0.0298504 -0.152937,0.0132677 -0.0872677,-0.0465 -0.159598,0.031252 -0.139094,0.0106378z" style="fill: #ffaa64; fill-rule: nonzero;"></path><path class="fil0" d="M0.00348819 0.0719173c0.063185,-0.0636929 0.103358,-0.0472795 0.146791,-0.0295354 0.0987559,0.046874 0.161091,-0.00640551 0.14524,0.00562992 -0.0688543,0.0476299 -0.11235,0.0298504 -0.152937,0.0132677 -0.0872677,-0.0465 -0.159598,0.031252 -0.139094,0.0106378z" style="fill: #ffaa64; fill-rule: nonzero;"></path><path class="fil0" d="M0.00348819 0.0983346c0.063185,-0.0636929 0.103358,-0.0472795 0.146791,-0.0295354 0.0987559,0.046874 0.161091,-0.00640551 0.14524,0.00562992 -0.0688543,0.0476299 -0.11235,0.0298504 -0.152937,0.0132717 -0.0872677,-0.0465039 -0.159598,0.031248 -0.139094,0.0106339z" style="fill: #ffaa64; fill-rule: nonzero;"></path></g></g><g id="SvgjsG2904" featurekey="Ua4uQk-0" transform="matrix(2.156076210411864,0,0,2.156076210411864,83.13756982426443,-12.20339102194003)" fill="#ffaa64"><path d="M1.82 9.28 c0 -3.22 2.42 -3.62 3.68 -3.62 c1 0 1.98 0.22 2.72 0.7 l-1.06 2.18 c-0.58 -0.22 -0.8 -0.28 -1.28 -0.28 c-0.9 0 -0.88 0.82 -0.88 1.02 l0 0.32 l2.16 0 l0 2.6 l-2.16 0 l0 7.8 l-3.18 0 l0 -7.8 l-1.42 0 l0 -2.6 l1.42 0 l0 -0.32 z M9.3 5.859999999999999 l3.16 0 l0 14.14 l-3.16 0 l0 -14.14 z M19.66 9.42 c2.36 0 5.48 1.78 5.48 5.42 c0 3.66 -3.12 5.36 -5.48 5.36 s-5.48 -1.7 -5.48 -5.36 c0 -3.64 3.12 -5.42 5.48 -5.42 z M19.66 12.2 c-1.2 0 -2.42 0.92 -2.42 2.64 c0 1.66 1.22 2.58 2.42 2.58 s2.44 -0.92 2.44 -2.58 c0 -1.72 -1.24 -2.64 -2.44 -2.64 z M41.28 9.56 l3.14 0 l-3.72 10.44 l-3.04 0 l-2.28 -6.5 l-2.28 6.5 l-3.04 0 l-3.72 -10.44 l3.14 0 l2.14 6.68 l2.38 -6.68 l2.76 0 l2.38 6.68 z M50.88 12.879999999999999 c-0.28 -0.72 -0.7 -0.96 -1.16 -0.96 c-0.42 0 -0.84 0.24 -0.84 0.64 c0 0.38 0.24 0.6 0.7 0.76 l1.32 0.46 c1.48 0.54 2.98 1.08 2.98 3.16 c0 2.1 -2.1 3.3 -4.26 3.3 c-1.94 0 -3.76 -1.14 -4.2 -2.96 l2.48 -0.78 c0.26 0.58 0.72 1.24 1.72 1.24 c0.68 0 1.12 -0.44 1.12 -0.84 c0 -0.2 -0.16 -0.46 -0.66 -0.66 l-1.22 -0.44 c-2.08 -0.76 -3.06 -1.82 -3.06 -3.3 c0 -1.94 1.8 -3.08 3.78 -3.08 c2.02 0 3.36 1.1 3.96 2.76 z"></path></g></svg>
